<?xml version="1.0" encoding="utf-8"?>
<!-- Generator: Adobe Illustrator 16.0.0, SVG Export Plug-In . SVG Version: 6.00 Build 0)  -->
<svg version="1.2" baseProfile="tiny" xmlns="http://www.w3.org/2000/svg" xmlns:xlink="http://www.w3.org/1999/xlink" x="0px"
	 y="0px" width="467.277px" height="450.01px" viewBox="0 17.776 467.277 450.01" xml:space="preserve">
<g>
	<g>
		<rect x="137.124" y="388.46" width="113.5" height="17.5"/>
		<rect x="244.125" y="399.585" fill="#7AB9E8" width="46" height="51"/>
		<path d="M357.869,276.771c-0.07-0.08-0.136-0.164-0.199-0.25H125.91c-0.851,6.123-2.241,11.634-2.258,17.146
			c-0.166,54.164-0.075,108.328-0.138,162.494c-0.006,5.313,1.529,9.436,6.693,11.625h161c3.861-1.847,6.539-4.621,6.594-9.138
			c0.084-7,0.242-14.008-0.047-20.996c-0.244-5.899-3.94-9.28-9.123-9.071c-4.525,0.182-7.493,3.721-7.651,9.368
			c-0.115,4.104-0.022,8.216-0.022,12.445h-140.63c0-13.91-0.099-27.389,0.032-40.867c0.1-10.28-1.687-9.207,9.404-9.221
			c44.831-0.051,89.661-0.016,134.489,0.191c6.889,0.03,11.357-2.211,14.82-8.511c16.928-30.778,34.247-61.344,51.471-91.959
			C354.595,292.826,359.343,285.898,357.869,276.771z M185.748,313.391c-0.621-11.578-1.279-23.832-1.961-36.508
			c12.113,0,25.514,0,38.522,0C210.037,289.138,197.76,301.395,185.748,313.391z"/>
		<rect x="140.374" y="400.483" fill="#98C8ED" width="109.355" height="49.801"/>
		<circle fill="#EDEDED" cx="179.749" cy="422.21" r="8.75"/>
		<path d="M441.966,225.896h-113h-9.658h-58.342h-54.658h-58.341h-9.659h-113C11.33,225.896,0,237.228,0,251.204
			c0,13.976,11.33,25.308,25.309,25.308h113h9.659h58.341h54.659h58.341h9.659h113c13.979,0,25.309-11.332,25.309-25.308
			C467.277,237.228,455.947,225.896,441.966,225.896z"/>
		<path fill="#EDEDED" d="M233.207,242.73c67.972,0,135.943-0.001,203.916,0.001c8.607,0,12.715,2.809,12.6,8.588
			c-0.111,5.625-4.158,8.377-12.406,8.379c-136.111,0.022-272.221,0.045-408.332,0.055c-1.661,0-3.354,0.035-4.976-0.258
			c-4.578-0.826-7.514-4.422-7.303-8.705c0.216-4.375,3.372-7.67,8.091-7.967c4.15-0.263,8.326-0.143,12.49-0.144
			c65.307-0.006,130.613-0.004,195.92-0.004C233.207,242.694,233.207,242.712,233.207,242.73z"/>
		<g>
			<path fill="#F7CEBC" d="M140.299,382.974c0-3.57,0-6.723,0-9.873c0.001-26.984,0.011-53.967-0.001-80.951
				c-0.003-5.928,2.002-10.828,7.362-13.779c4.75-2.616,9.617-2.438,14.232,0.447c4.656,2.914,6.534,7.338,6.53,12.707
				c-0.009,12.658,0.004,25.318,0.009,37.978c0,1.5,0,3,0.011,4.498c0.03,4.137,1.327,7.633,5.438,9.27
				c4.103,1.633,7.386-0.027,10.319-2.971c16.932-16.99,33.914-33.931,50.847-50.916c5.512-5.531,11.72-9.912,19.457-11.568
				c3.391-0.725,6.916-1.12,10.381-1.135c23.152-0.086,46.306-0.058,69.459,0.002c6.769,0.019,8.316,2.804,4.941,8.832
				c-17.563,31.373-35.123,62.752-52.871,94.021c-0.996,1.757-3.662,3.64-5.561,3.646c-45.805,0.219-91.61,0.189-137.416,0.188
				C142.631,383.367,141.825,383.171,140.299,382.974z"/>
			<path fill="#F7BA9E" d="M335.968,276.659c-8.748-0.021-17.495-0.033-26.243-0.041c-19.927,35.592-39.866,71.18-59.996,106.657
				c10.916-0.026,21.833-0.063,32.749-0.117c1.898-0.008,4.564-1.891,5.561-3.646c17.748-31.271,35.308-62.648,52.871-94.021
				C344.285,279.462,342.736,276.677,335.968,276.659z"/>
		</g>
	</g>
	<g>
		<path d="M233.638,240.087c-3.023,0-6.012-0.607-8.794-1.773l-89.461-19.678c-10.397-2.295-17.937-11.677-17.937-22.312v-77.773
			l77.879-8.567c1.386-0.152,2.605-0.915,3.345-2.093l12.142-19.326l2.433-3.928l20.902-33.272l13.097,22.905l9.238,14.703
			l-0.019,98.697l47.66-10.484l0.021-63.274l45.686,5.029v77.771c0,10.643-7.544,20.026-17.938,22.311l-93.348,20.533
			C236.978,239.904,235.311,240.087,233.638,240.087z"/>
		<path fill="#B99664" d="M320.122,190.048l-79.66,17.523l0.021-113.992l-6.962-11.081l-0.018-0.031l-6.708,10.679v0.056
			l-14.576,23.2c-3.335,5.308-8.912,8.799-15.143,9.484l-63.629,7v63.437c0,3.212,2.236,5.993,5.374,6.685l91.292,20.08
			c1.068,0.648,2.282,0.998,3.525,0.998c0.492,0,0.983-0.051,1.472-0.159l93.35-20.534c3.139-0.689,5.373-3.469,5.373-6.684
			v-63.436l-13.691-1.507L320.122,190.048z"/>
		<path d="M365.797,135.438c-0.82,0-1.65-0.045-2.467-0.133l-93.382-10.269c-6.963-0.764-13.103-4.607-16.839-10.543
			l-19.472-30.991l-19.463,30.979c-3.741,5.946-9.88,9.79-16.849,10.555l-93.345,10.265c-0.835,0.092-1.671,0.137-2.5,0.137
			c-8.203,0-15.813-4.43-19.861-11.562c-4.506-7.915-3.873-17.749,1.623-25.036l38.804-51.494
			c3.278-4.353,8.021-7.396,13.351-8.563l93.332-20.531c0.992-0.225,1.895-0.319,2.547-0.36c0.77-0.078,1.55-0.117,2.361-0.117
			c0.835,0,1.636,0.041,2.424,0.123c0.863,0.058,1.694,0.178,2.52,0.362l93.315,20.526c5.315,1.166,10.056,4.207,13.337,8.562
			l38.806,51.498c5.49,7.282,6.124,17.115,1.609,25.046C381.604,131.011,373.996,135.438,365.797,135.438z"/>
		<path fill="#B99664" d="M371.261,108.476l-38.808-51.5c-0.982-1.304-2.399-2.213-3.994-2.562l-93.35-20.534
			c-0.149-0.035-0.3-0.011-0.451-0.035c-0.337-0.05-0.671-0.068-1.021-0.068c-0.343,0-0.678,0.019-1.016,0.068
			c-0.152,0.024-0.302,0-0.455,0.035L138.82,54.414c-1.597,0.35-3.013,1.258-3.995,2.562l-38.809,51.5
			c-1.644,2.18-1.833,5.13-0.482,7.503c1.224,2.157,3.505,3.459,5.946,3.459c0.25,0,0.5-0.013,0.751-0.041l93.348-10.266
			c2.077-0.228,3.935-1.395,5.047-3.162l33.011-52.543l33.013,52.543c1.112,1.767,2.969,2.934,5.047,3.162l93.35,10.266
			c0.253,0.027,0.499,0.041,0.75,0.041c2.439,0,4.721-1.303,5.946-3.459C373.094,113.606,372.905,110.656,371.261,108.476z"/>
	</g>
</g>
<g display="none">
	<path display="inline" fill="#B99664" d="M305.571,184.468l-67.051,14.75l0.018-95.95l-5.86-9.327l-0.015-0.026l-5.647,8.989
		v0.047l-12.269,19.528c-2.807,4.468-7.501,7.407-12.746,7.983l-53.558,5.892v53.397c0,2.704,1.882,5.044,4.523,5.626
		l76.843,16.902c0.9,0.545,1.922,0.839,2.968,0.839c0.414,0,0.828-0.042,1.239-0.134l78.574-17.284
		c2.643-0.581,4.522-2.92,4.522-5.626V136.68l-11.523-1.269L305.571,184.468z"/>
	<path display="inline" fill="#B99664" d="M348.617,119.174l-32.665-43.349c-0.827-1.098-2.02-1.863-3.362-2.157l-78.574-17.284
		c-0.126-0.029-0.252-0.009-0.38-0.029c-0.284-0.042-0.565-0.058-0.859-0.058c-0.289,0-0.57,0.016-0.855,0.058
		c-0.128,0.02-0.254,0-0.383,0.029l-78.573,17.284c-1.344,0.294-2.536,1.06-3.362,2.157l-32.666,43.349
		c-1.384,1.834-1.543,4.318-0.406,6.315c1.03,1.815,2.951,2.912,5.005,2.912c0.21,0,0.421-0.011,0.632-0.034l78.574-8.641
		c1.749-0.192,3.312-1.174,4.248-2.662l27.787-44.227l27.788,44.227c0.936,1.488,2.499,2.47,4.248,2.662l78.575,8.641
		c0.212,0.023,0.419,0.034,0.631,0.034c2.053,0,3.974-1.097,5.005-2.912C350.16,123.492,350,121.008,348.617,119.174z"/>
</g>
</svg>
